<mxfile host="app.diagrams.net" agent="Mozilla/5.0 (Windows NT 10.0; Win64; x64) AppleWebKit/537.36 (KHTML, like Gecko) Chrome/129.0.0.0 Safari/537.36" version="24.7.16">
  <diagram name="Sida-1" id="tdef3MVgms2CZdFpKoRR">
    <mxGraphModel dx="1014" dy="544" grid="1" gridSize="10" guides="1" tooltips="1" connect="1" arrows="1" fold="1" page="1" pageScale="1" pageWidth="827" pageHeight="1169" math="0" shadow="0">
      <root>
        <mxCell id="0" />
        <mxCell id="1" parent="0" />
        <mxCell id="lUlJBxCOUc1RsAJqsheJ-1" value="" style="rounded=0;whiteSpace=wrap;html=1;fillColor=none;strokeWidth=0.5;" vertex="1" parent="1">
          <mxGeometry x="80" y="120" width="500" height="200" as="geometry" />
        </mxCell>
        <mxCell id="lUlJBxCOUc1RsAJqsheJ-2" value="" style="rounded=0;whiteSpace=wrap;html=1;fillColor=none;strokeWidth=0.5;" vertex="1" parent="1">
          <mxGeometry x="80" y="320" width="500" height="12" as="geometry" />
        </mxCell>
        <mxCell id="lUlJBxCOUc1RsAJqsheJ-3" value="" style="rounded=0;whiteSpace=wrap;html=1;strokeWidth=0.5;" vertex="1" parent="1">
          <mxGeometry x="80" y="332" width="30" height="3" as="geometry" />
        </mxCell>
        <mxCell id="lUlJBxCOUc1RsAJqsheJ-5" value="" style="rounded=0;whiteSpace=wrap;html=1;strokeWidth=0.5;" vertex="1" parent="1">
          <mxGeometry x="550" y="332" width="30" height="3" as="geometry" />
        </mxCell>
        <mxCell id="lUlJBxCOUc1RsAJqsheJ-6" value="" style="rounded=0;whiteSpace=wrap;html=1;fillColor=none;strokeWidth=0.5;" vertex="1" parent="1">
          <mxGeometry x="80" y="120" width="500" height="12" as="geometry" />
        </mxCell>
        <mxCell id="lUlJBxCOUc1RsAJqsheJ-8" value="" style="rounded=0;whiteSpace=wrap;html=1;strokeWidth=0.5;" vertex="1" parent="1">
          <mxGeometry x="80" y="132" width="4.5" height="188" as="geometry" />
        </mxCell>
        <mxCell id="lUlJBxCOUc1RsAJqsheJ-9" value="" style="rounded=0;whiteSpace=wrap;html=1;strokeWidth=0.5;" vertex="1" parent="1">
          <mxGeometry x="575.5" y="132" width="4.5" height="188" as="geometry" />
        </mxCell>
        <mxCell id="lUlJBxCOUc1RsAJqsheJ-10" value="" style="rounded=0;whiteSpace=wrap;html=1;strokeWidth=0.5;" vertex="1" parent="1">
          <mxGeometry x="204" y="132" width="4.5" height="188" as="geometry" />
        </mxCell>
        <mxCell id="lUlJBxCOUc1RsAJqsheJ-12" value="" style="rounded=0;whiteSpace=wrap;html=1;strokeWidth=0.5;" vertex="1" parent="1">
          <mxGeometry x="328" y="132" width="4.5" height="188" as="geometry" />
        </mxCell>
        <mxCell id="lUlJBxCOUc1RsAJqsheJ-13" value="" style="rounded=0;whiteSpace=wrap;html=1;strokeWidth=0.5;" vertex="1" parent="1">
          <mxGeometry x="452" y="132" width="4.5" height="188" as="geometry" />
        </mxCell>
        <mxCell id="lUlJBxCOUc1RsAJqsheJ-21" value="500 cm" style="shape=dimension;direction=west;whiteSpace=wrap;html=1;align=center;points=[];verticalAlign=top;spacingTop=-15;labelBackgroundColor=none;strokeWidth=0.5;fontSize=10;" vertex="1" parent="1">
          <mxGeometry x="80" y="80" width="500" height="40" as="geometry" />
        </mxCell>
        <mxCell id="lUlJBxCOUc1RsAJqsheJ-22" value="Label" style="shape=dimension;direction=north;whiteSpace=wrap;html=1;align=center;points=[];verticalAlign=bottom;labelBackgroundColor=none;horizontal=0;spacingBottom=3;strokeWidth=0.5;fontSize=10;" vertex="1" parent="1">
          <mxGeometry x="640" y="20" width="40" height="100" as="geometry" />
        </mxCell>
        <mxCell id="lUlJBxCOUc1RsAJqsheJ-23" value="200 cm" style="shape=dimension;direction=south;whiteSpace=wrap;html=1;align=center;points=[];verticalAlign=top;labelBackgroundColor=none;horizontal=0;spacingTop=-15;strokeWidth=0.5;fontSize=10;" vertex="1" parent="1">
          <mxGeometry x="40" y="120" width="40" height="200" as="geometry" />
        </mxCell>
        <mxCell id="lUlJBxCOUc1RsAJqsheJ-24" value="Label" style="shape=dimension;whiteSpace=wrap;html=1;align=center;points=[];verticalAlign=bottom;spacingBottom=3;labelBackgroundColor=none;strokeWidth=0.5;fontSize=10;" vertex="1" parent="1">
          <mxGeometry x="640" y="140" width="100" height="40" as="geometry" />
        </mxCell>
        <mxCell id="lUlJBxCOUc1RsAJqsheJ-25" value="Label" style="shape=dimension;direction=west;whiteSpace=wrap;html=1;align=center;points=[];verticalAlign=top;spacingTop=-15;labelBackgroundColor=none;strokeWidth=0.5;fontSize=10;" vertex="1" parent="1">
          <mxGeometry x="640" y="190" width="100" height="40" as="geometry" />
        </mxCell>
        <mxCell id="lUlJBxCOUc1RsAJqsheJ-26" value="" style="rounded=0;whiteSpace=wrap;html=1;strokeWidth=0.5;fillColor=none;" vertex="1" parent="1">
          <mxGeometry x="208.5" y="250" width="119.5" height="60" as="geometry" />
        </mxCell>
        <mxCell id="lUlJBxCOUc1RsAJqsheJ-27" value="200 cm" style="shape=dimension;direction=south;whiteSpace=wrap;html=1;align=center;points=[];verticalAlign=top;labelBackgroundColor=none;horizontal=0;spacingTop=-15;strokeWidth=0.5;fontSize=10;" vertex="1" parent="1">
          <mxGeometry x="700" y="20" width="40" height="100" as="geometry" />
        </mxCell>
        <mxCell id="lUlJBxCOUc1RsAJqsheJ-28" value="" style="rounded=0;whiteSpace=wrap;html=1;fillColor=none;strokeWidth=0.5;" vertex="1" parent="1">
          <mxGeometry x="80" y="370" width="500" height="200" as="geometry" />
        </mxCell>
        <mxCell id="lUlJBxCOUc1RsAJqsheJ-32" value="Oljefat" style="ellipse;whiteSpace=wrap;html=1;aspect=fixed;strokeWidth=0.5;fontSize=8;" vertex="1" parent="1">
          <mxGeometry x="149" y="382" width="55" height="55" as="geometry" />
        </mxCell>
        <mxCell id="lUlJBxCOUc1RsAJqsheJ-33" value="Soptunna" style="ellipse;whiteSpace=wrap;html=1;aspect=fixed;strokeWidth=0.5;fontSize=8;" vertex="1" parent="1">
          <mxGeometry x="208.5" y="382" width="55" height="55" as="geometry" />
        </mxCell>
        <mxCell id="lUlJBxCOUc1RsAJqsheJ-35" value="" style="group" vertex="1" connectable="0" parent="1">
          <mxGeometry x="90" y="380" width="56" height="59" as="geometry" />
        </mxCell>
        <mxCell id="lUlJBxCOUc1RsAJqsheJ-31" value="Soptunna" style="rounded=1;whiteSpace=wrap;html=1;strokeWidth=0.5;fontSize=8;" vertex="1" parent="lUlJBxCOUc1RsAJqsheJ-35">
          <mxGeometry width="56" height="59" as="geometry" />
        </mxCell>
        <mxCell id="lUlJBxCOUc1RsAJqsheJ-34" value="" style="rounded=1;whiteSpace=wrap;html=1;strokeWidth=0.5;" vertex="1" parent="lUlJBxCOUc1RsAJqsheJ-35">
          <mxGeometry x="3" y="50" width="50" height="5" as="geometry" />
        </mxCell>
        <mxCell id="lUlJBxCOUc1RsAJqsheJ-36" value="" style="rounded=0;whiteSpace=wrap;html=1;strokeWidth=0.5;" vertex="1" parent="1">
          <mxGeometry x="80" y="430" width="4.5" height="7" as="geometry" />
        </mxCell>
        <mxCell id="lUlJBxCOUc1RsAJqsheJ-37" value="" style="rounded=0;whiteSpace=wrap;html=1;strokeWidth=0.5;" vertex="1" parent="1">
          <mxGeometry x="80" y="370" width="4.5" height="7" as="geometry" />
        </mxCell>
        <mxCell id="lUlJBxCOUc1RsAJqsheJ-38" value="" style="rounded=0;whiteSpace=wrap;html=1;strokeWidth=0.5;" vertex="1" parent="1">
          <mxGeometry x="57.75" y="440" width="4.5" height="60" as="geometry" />
        </mxCell>
        <mxCell id="lUlJBxCOUc1RsAJqsheJ-41" value="" style="rounded=0;whiteSpace=wrap;html=1;strokeWidth=0.5;" vertex="1" parent="1">
          <mxGeometry x="80" y="490" width="4.5" height="7" as="geometry" />
        </mxCell>
        <mxCell id="lUlJBxCOUc1RsAJqsheJ-42" value="" style="rounded=0;whiteSpace=wrap;html=1;strokeWidth=0.5;" vertex="1" parent="1">
          <mxGeometry x="80" y="549" width="4.5" height="7" as="geometry" />
        </mxCell>
      </root>
    </mxGraphModel>
  </diagram>
</mxfile>
